<svg xmlns="http://www.w3.org/2000/svg" width="98.117" height="26.192"><path fill="#24D071" d="M.763 9.479a1.837 1.837 0 01-.567-1.348c0-.521.189-.97.567-1.348a1.84 1.84 0 011.347-.566c.522 0 .971.189 1.348.566.378.378.566.827.566 1.348 0 .522-.188.971-.566 1.348a1.837 1.837 0 01-1.348.566c-.521 0-.97-.188-1.347-.566M3.287 20.96H.88a.307.307 0 01-.307-.306v-8.012c0-.169.138-.306.307-.306h2.407c.169 0 .307.137.307.306v8.012c0 .17-.138.306-.307.306m48.106-5.849H41.021c-.26 0-.451.24-.397.495.171.817.624 1.492 1.361 2.026.88.638 1.888.957 3.02.957 1.663 0 2.957-.485 3.881-1.455a.306.306 0 01.445.004l1.299 1.423a.305.305 0 01-.009.424c-1.518 1.461-3.461 2.192-5.832 2.192-2.013 0-3.725-.67-5.136-2.01-1.411-1.339-2.116-3.136-2.116-5.392 0-2.255.718-4.048 2.156-5.379 1.438-1.329 3.132-1.995 5.082-1.995s3.608.589 4.975 1.766c1.366 1.177 2.048 2.8 2.048 4.867v1.669a.405.405 0 01-.405.408m-10.409-2.373h7.371a.406.406 0 00.406-.436c-.082-.994-.453-1.774-1.114-2.341-.755-.647-1.685-.971-2.791-.971a4.766 4.766 0 00-2.978 1.012c-.766.585-1.199 1.35-1.299 2.295a.405.405 0 00.405.441m18.05-3.694a.306.306 0 00-.306.306v6.973c0 .683.179 1.227.539 1.631.359.404.863.607 1.51.607.548 0 1.076-.226 1.585-.678a.308.308 0 01.472.071l.915 1.571a.305.305 0 01-.065.388c-1.008.842-2.117 1.262-3.324 1.262-1.286 0-2.383-.444-3.29-1.334s-1.361-2.09-1.361-3.6v-6.89a.306.306 0 00-.306-.306h-1.194a.306.306 0 01-.306-.306V6.923c0-.169.137-.306.306-.306h1.194a.305.305 0 00.306-.305V2.421c0-.169.138-.306.306-.306h2.408c.17 0 .307.137.307.306v3.891c0 .169.137.305.306.305h3.162c.169 0 .306.137.306.306v1.815a.306.306 0 01-.306.306h-3.164zm14.924.075a.328.328 0 01-.315.331c-1.414.033-2.485.518-3.213 1.455-.756.97-1.133 2.274-1.133 3.909v5.842a.307.307 0 01-.307.306h-2.407a.307.307 0 01-.306-.306V6.924c0-.169.137-.306.306-.306h2.407c.169 0 .307.137.307.306v1.833c0 .207.266.29.385.12a6.2 6.2 0 011.596-1.585c.738-.507 1.512-.798 2.324-.872a.309.309 0 01.336.303l.02 2.396zM77.17 3.76a1.835 1.835 0 01-.567-1.348c0-.521.188-.971.567-1.348a1.838 1.838 0 011.346-.566c.522 0 .972.189 1.35.566.377.377.564.827.564 1.348 0 .522-.188.97-.564 1.348a1.845 1.845 0 01-1.35.566c-.521 0-.969-.189-1.346-.566m2.523 17.2h-2.407a.306.306 0 01-.306-.306V6.924c0-.169.137-.306.306-.306h2.407c.169 0 .307.137.307.306v13.731a.306.306 0 01-.307.305m10.539.217c-1.808 0-3.39-.692-4.746-2.076-1.357-1.385-2.037-3.182-2.037-5.393s.684-3.981 2.049-5.312c1.367-1.329 3.012-1.995 4.936-1.995 1.633 0 3.001.655 4.102 1.965.191.226.563.084.563-.212v-1.23c0-.169.137-.306.307-.306h2.407c.169 0 .306.137.306.306v18.962a.307.307 0 01-.306.306h-2.407a.307.307 0 01-.307-.306v-6.302a.32.32 0 00-.537-.235c-1.302 1.219-2.746 1.828-4.33 1.828M86.47 13.83c0 1.375.44 2.494 1.321 3.357s1.914 1.293 3.101 1.293 2.192-.436 3.019-1.307c.828-.871 1.242-1.99 1.242-3.356s-.414-2.503-1.242-3.411c-.826-.907-1.842-1.361-3.045-1.361-1.205 0-2.238.454-3.102 1.361-.862.907-1.294 2.049-1.294 3.424M32.813 1.055a3.111 3.111 0 00-3.614 1.228l-.042.053-8.81 16.103c-.013.008-.046.008-.058 0l-3.988-7.288a3.436 3.436 0 00-2.987-1.788c-1.25-.003-2.401.707-3.017 1.79L4.94 20.657a.274.274 0 00.239.409H8.06a.274.274 0 00.239-.139l4.656-8.268a.408.408 0 01.335-.218c.101.001.242.024.331.186l4.036 7.374.065.106c.744 1.128 2.143 1.666 3.519 1.258a3.078 3.078 0 001.682-1.284l.02-.029L31.754 3.94a.296.296 0 01.102.018s.033.01.033.037v16.797c0 .152.122.274.275.274h2.504a.274.274 0 00.276-.274V4.13c0-1.368-.835-2.634-2.131-3.075"/></svg>