<svg xmlns="http://www.w3.org/2000/svg" width="130" height="95.668"><path fill="none" stroke="#24D071" stroke-width="11" stroke-linecap="round" stroke-linejoin="round" stroke-miterlimit="10" d="M75.799 39.245l5.47 5.469 15.926-15.926 8.115 8.115 19.19-19.19"/><path fill="none" stroke="#78F972" stroke-width="11" stroke-linecap="round" stroke-linejoin="round" stroke-miterlimit="10" d="M75.799 39.245l-4.759-4.76"/><path fill="none" stroke="#24D071" stroke-width="12" stroke-linecap="round" stroke-linejoin="round" stroke-miterlimit="10" d="M42.066 12.188c8.251 8.25 8.251 21.628 0 29.878-8.25 8.251-21.627 8.251-29.878 0-8.251-8.25-8.251-21.628 0-29.878a21.106 21.106 0 015.461-3.949"/><path fill="none" stroke="#78F972" stroke-width="12" stroke-linecap="round" stroke-linejoin="round" stroke-miterlimit="10" d="M25.613 6.054c5.9-.421 11.941 1.623 16.453 6.134"/><path fill="none" stroke="#24D071" stroke-width="12" stroke-linecap="round" stroke-linejoin="round" stroke-miterlimit="10" d="M17.649 8.239a21.105 21.105 0 017.964-2.185"/><path fill="none" stroke="#78F972" stroke-width="11" stroke-linecap="round" stroke-linejoin="round" stroke-miterlimit="10" d="M28.578 74.566h22.577"/><path fill="none" stroke="#24D071" stroke-width="11" stroke-linecap="round" stroke-linejoin="round" stroke-miterlimit="10" d="M6 74.566h22.578M6 90.168h62.17"/></svg>