<svg xmlns="http://www.w3.org/2000/svg" width="105.938" height="113.197"><path fill="none" stroke="#78F972" stroke-width="3" stroke-linecap="round" stroke-linejoin="round" stroke-miterlimit="10" d="M17.72 86.656l27.395 15.817M8.961 39.603v31.436M36.91 47.735L15.447 35.344m36.815 63.123V74.844m0 0v23.624m35.355-62.281L67.613 47.735m27.95 21.364V39.603m-35.959 62.756l25.755-14.87M45.635 10.425L15.447 27.854m72.776-.493L58.889 10.425m8.724 37.31l20.004-11.548m-72.17-.843L36.91 47.735"/><circle fill="none" stroke="#24D071" stroke-width="4.947" stroke-linecap="round" stroke-linejoin="round" stroke-miterlimit="10" cx="95.563" cy="31.599" r="4.587"/><circle fill="none" stroke="#24D071" stroke-width="4.947" stroke-linecap="round" stroke-linejoin="round" stroke-miterlimit="10" cx="8.96" cy="81.33" r="6.487"/><circle fill="none" stroke="#24D071" stroke-width="4.947" stroke-linecap="round" stroke-linejoin="round" stroke-miterlimit="10" cx="52.262" cy="106.599" r="4.125"/><circle fill="none" stroke="#24D071" stroke-width="4.947" stroke-linecap="round" stroke-linejoin="round" stroke-miterlimit="10" cx="52.262" cy="6.599" r="4.125"/><circle fill="none" stroke="#24D071" stroke-width="4.947" stroke-linecap="round" stroke-linejoin="round" stroke-miterlimit="10" cx="8.96" cy="31.599" r="4.125"/><path fill="none" stroke="#24D071" stroke-width="12" stroke-linecap="round" stroke-linejoin="round" stroke-miterlimit="10" d="M59.604 63.941c-4.056 4.055-10.63 4.055-14.687 0-4.055-4.055-4.055-10.63 0-14.686 4.057-4.056 10.631-4.056 14.687 0a10.353 10.353 0 011.94 2.685"/><path fill="none" stroke="#78F972" stroke-width="12" stroke-linecap="round" stroke-linejoin="round" stroke-miterlimit="10" d="M62.619 55.854a10.36 10.36 0 01-3.015 8.087"/><path fill="none" stroke="#24D071" stroke-width="12" stroke-linecap="round" stroke-linejoin="round" stroke-miterlimit="10" d="M61.545 51.94a10.33 10.33 0 011.074 3.915"/><circle fill="none" stroke="#24D071" stroke-width="7.778" stroke-linecap="round" stroke-linejoin="round" stroke-miterlimit="10" cx="95.563" cy="81.33" r="6.487"/></svg>