<svg xmlns="http://www.w3.org/2000/svg" width="72.25" height="71.25"><circle fill="none" stroke="#FFF" stroke-width="2" stroke-miterlimit="10" cx="36.514" cy="35.676" r="34"/><path fill="#FFF" d="M30.043 26.543c0 1.397-1.031 2.528-2.729 2.528-1.597 0-2.627-1.131-2.627-2.528 0-1.431 1.063-2.528 2.693-2.528 1.632 0 2.63 1.097 2.663 2.528m-5.224 4.525h5.058v16.269h-5.058V31.068zm8.084 5.19c0-2.029-.066-3.726-.133-5.19h4.392l.232 2.263h.101c.665-1.065 2.295-2.628 5.023-2.628 3.327 0 5.823 2.229 5.823 7.02v9.615h-5.058v-9.016c0-2.097-.733-3.527-2.563-3.527-1.397 0-2.229.965-2.595 1.896-.133.332-.167.799-.167 1.265v9.382h-5.057v-11.08z"/></svg>