<svg xmlns="http://www.w3.org/2000/svg" width="149.895" height="116.792"><circle fill="none" stroke="#24D071" stroke-width="11" stroke-linecap="round" stroke-linejoin="round" stroke-miterlimit="10" cx="135.221" cy="102.12" r="9.173"/><circle fill="none" stroke="#24D071" stroke-width="7.778" stroke-linecap="round" stroke-linejoin="round" stroke-miterlimit="10" cx="117.763" cy="13.062" r="9.173"/><circle fill="none" stroke="#24D071" stroke-width="7.778" stroke-linecap="round" stroke-linejoin="round" stroke-miterlimit="10" cx="23.157" cy="36.499" r="6.487"/><circle fill="none" stroke="#24D071" stroke-width="4.947" stroke-linecap="round" stroke-linejoin="round" stroke-miterlimit="10" cx="6.599" cy="97.994" r="4.125"/><path fill="none" stroke="#78F972" stroke-width="3" stroke-linecap="round" stroke-linejoin="round" stroke-miterlimit="10" d="M15.006 92.618l29.752-19.025m76.96 19.353L93.237 73.597m13.077-49.913l-15.46 14.342m-56.353 3.619l8.511 3.86"/><path fill="none" stroke="#24D071" stroke-width="12" stroke-linecap="round" stroke-linejoin="round" stroke-miterlimit="10" d="M48.601 57.625c0-11.668 9.459-21.127 21.127-21.127s21.127 9.459 21.127 21.127-9.459 21.127-21.127 21.127c-2.324 0-4.563-.375-6.653-1.069"/><path fill="none" stroke="#78F972" stroke-width="12" stroke-linecap="round" stroke-linejoin="round" stroke-miterlimit="10" d="M55.897 73.597c-4.47-3.874-7.297-9.593-7.297-15.972"/><path fill="none" stroke="#24D071" stroke-width="12" stroke-linecap="round" stroke-linejoin="round" stroke-miterlimit="10" d="M63.074 77.684a21.082 21.082 0 01-7.177-4.086"/></svg>