<?xml version="1.0" encoding="utf-8"?>
<!-- Generator: Adobe Illustrator 16.0.0, SVG Export Plug-In . SVG Version: 6.00 Build 0)  -->
<!DOCTYPE svg PUBLIC "-//W3C//DTD SVG 1.1//EN" "http://www.w3.org/Graphics/SVG/1.1/DTD/svg11.dtd">
<svg version="1.1" id="Layer_1" xmlns="http://www.w3.org/2000/svg" xmlns:xlink="http://www.w3.org/1999/xlink" x="0px" y="0px"
	 width="72.25px" height="71.25px" viewBox="0 0 72.25 71.25" enable-background="new 0 0 72.25 71.25" xml:space="preserve">
<circle fill="none" stroke="#FFFFFF" stroke-width="2" stroke-miterlimit="10" cx="36.514" cy="35.676" r="34"/>
<path fill="#FFFFFF" d="M30.043,26.543c0,1.397-1.031,2.528-2.729,2.528c-1.597,0-2.627-1.131-2.627-2.528
	c0-1.431,1.063-2.528,2.693-2.528C29.012,24.015,30.01,25.112,30.043,26.543 M24.819,31.068h5.058v16.269h-5.058V31.068z"/>
<path fill="#FFFFFF" d="M32.903,36.258c0-2.029-0.066-3.726-0.133-5.19h4.392l0.232,2.263h0.101
	c0.665-1.065,2.295-2.628,5.023-2.628c3.327,0,5.823,2.229,5.823,7.02v9.615h-5.058v-9.016c0-2.097-0.733-3.527-2.563-3.527
	c-1.397,0-2.229,0.965-2.595,1.896c-0.133,0.332-0.167,0.799-0.167,1.265v9.382h-5.057V36.258z"/>
</svg>
