<?xml version="1.0" encoding="utf-8"?>
<!-- Generator: Adobe Illustrator 16.0.0, SVG Export Plug-In . SVG Version: 6.00 Build 0)  -->
<!DOCTYPE svg PUBLIC "-//W3C//DTD SVG 1.1//EN" "http://www.w3.org/Graphics/SVG/1.1/DTD/svg11.dtd">
<svg version="1.1" id="Layer_1" xmlns="http://www.w3.org/2000/svg" xmlns:xlink="http://www.w3.org/1999/xlink" x="0px" y="0px"
	 width="98.117px" height="26.192px" viewBox="0 0 98.117 26.192" enable-background="new 0 0 98.117 26.192" xml:space="preserve">
<path fill="#24D071" d="M0.763,9.479C0.385,9.102,0.196,8.653,0.196,8.131c0-0.521,0.189-0.97,0.567-1.348
	C1.14,6.406,1.589,6.217,2.11,6.217c0.522,0,0.971,0.189,1.348,0.566C3.836,7.161,4.024,7.61,4.024,8.131
	c0,0.522-0.188,0.971-0.566,1.348c-0.377,0.378-0.826,0.566-1.348,0.566C1.589,10.045,1.14,9.857,0.763,9.479 M3.287,20.96H0.88
	c-0.169,0-0.307-0.137-0.307-0.306v-8.012c0-0.169,0.138-0.306,0.307-0.306h2.407c0.169,0,0.307,0.137,0.307,0.306v8.012
	C3.594,20.824,3.456,20.96,3.287,20.96"/>
<path fill="#24D071" d="M51.393,15.111H41.021c-0.26,0-0.451,0.24-0.397,0.495c0.171,0.817,0.624,1.492,1.361,2.026
	c0.88,0.638,1.888,0.957,3.02,0.957c1.663,0,2.957-0.485,3.881-1.455c0.121-0.127,0.326-0.125,0.445,0.004l1.299,1.423
	c0.111,0.121,0.109,0.31-0.009,0.424c-1.518,1.461-3.461,2.192-5.832,2.192c-2.013,0-3.725-0.67-5.136-2.01
	c-1.411-1.339-2.116-3.136-2.116-5.392c0-2.255,0.718-4.048,2.156-5.379c1.438-1.329,3.132-1.995,5.082-1.995
	s3.608,0.589,4.975,1.766c1.366,1.177,2.048,2.8,2.048,4.867v1.669C51.799,14.929,51.617,15.111,51.393,15.111 M40.984,12.738h7.371
	c0.236,0,0.426-0.201,0.406-0.436c-0.082-0.994-0.453-1.774-1.114-2.341c-0.755-0.647-1.685-0.971-2.791-0.971
	c-1.105,0-2.099,0.337-2.978,1.012c-0.766,0.585-1.199,1.35-1.299,2.295C40.553,12.533,40.748,12.738,40.984,12.738"/>
<path fill="#24D071" d="M59.034,9.044c-0.169,0-0.306,0.137-0.306,0.306v6.973c0,0.683,0.179,1.227,0.539,1.631
	c0.359,0.404,0.863,0.607,1.51,0.607c0.548,0,1.076-0.226,1.585-0.678c0.147-0.129,0.373-0.098,0.472,0.071l0.915,1.571
	c0.074,0.129,0.05,0.293-0.065,0.388c-1.008,0.842-2.117,1.262-3.324,1.262c-1.286,0-2.383-0.444-3.29-1.334s-1.361-2.09-1.361-3.6
	V9.351c0-0.169-0.137-0.306-0.306-0.306h-1.194c-0.169,0-0.306-0.137-0.306-0.306V6.923c0-0.169,0.137-0.306,0.306-0.306h1.194
	c0.169,0,0.306-0.136,0.306-0.305V2.421c0-0.169,0.138-0.306,0.306-0.306h2.408c0.17,0,0.307,0.137,0.307,0.306v3.891
	c0,0.169,0.137,0.305,0.306,0.305h3.162c0.169,0,0.306,0.137,0.306,0.306v1.815c0,0.169-0.137,0.306-0.306,0.306H59.034z"/>
<path fill="#24D071" d="M73.958,9.119c0.001,0.178-0.14,0.327-0.315,0.331c-1.414,0.033-2.485,0.518-3.213,1.455
	c-0.756,0.97-1.133,2.274-1.133,3.909v5.842c0,0.168-0.138,0.306-0.307,0.306h-2.407c-0.169,0-0.306-0.138-0.306-0.306V6.924
	c0-0.169,0.137-0.306,0.306-0.306h2.407c0.169,0,0.307,0.137,0.307,0.306v1.833c0,0.207,0.266,0.29,0.385,0.12
	c0.43-0.621,0.963-1.149,1.596-1.585c0.738-0.507,1.512-0.798,2.324-0.872c0.178-0.016,0.334,0.124,0.336,0.303L73.958,9.119z"/>
<path fill="#24D071" d="M77.17,3.76c-0.379-0.378-0.567-0.826-0.567-1.348c0-0.521,0.188-0.971,0.567-1.348
	c0.377-0.377,0.825-0.566,1.346-0.566c0.522,0,0.972,0.189,1.35,0.566c0.377,0.377,0.564,0.827,0.564,1.348
	c0,0.522-0.188,0.97-0.564,1.348c-0.378,0.377-0.827,0.566-1.35,0.566C77.995,4.326,77.547,4.137,77.17,3.76 M79.693,20.96h-2.407
	c-0.169,0-0.306-0.137-0.306-0.306V6.924c0-0.169,0.137-0.306,0.306-0.306h2.407C79.862,6.618,80,6.755,80,6.924v13.731
	C80,20.824,79.862,20.96,79.693,20.96"/>
<path fill="#24D071" d="M90.232,21.177c-1.808,0-3.39-0.692-4.746-2.076c-1.357-1.385-2.037-3.182-2.037-5.393
	s0.684-3.981,2.049-5.312c1.367-1.329,3.012-1.995,4.936-1.995c1.633,0,3.001,0.655,4.102,1.965
	c0.191,0.226,0.563,0.084,0.563-0.212V6.924c0-0.169,0.137-0.306,0.307-0.306h2.407c0.169,0,0.306,0.137,0.306,0.306v18.962
	c0,0.168-0.137,0.306-0.306,0.306h-2.407c-0.17,0-0.307-0.138-0.307-0.306v-6.302c0-0.278-0.333-0.425-0.537-0.235
	C93.26,20.568,91.816,21.177,90.232,21.177 M86.47,13.83c0,1.375,0.44,2.494,1.321,3.357s1.914,1.293,3.101,1.293
	s2.192-0.436,3.019-1.307c0.828-0.871,1.242-1.99,1.242-3.356s-0.414-2.503-1.242-3.411c-0.826-0.907-1.842-1.361-3.045-1.361
	c-1.205,0-2.238,0.454-3.102,1.361C86.902,11.313,86.47,12.455,86.47,13.83"/>
<path fill="#24D071" d="M32.813,1.055c-1.355-0.462-2.831,0.042-3.614,1.228l-0.042,0.053l-8.81,16.103
	c-0.013,0.008-0.046,0.008-0.058,0l-3.988-7.288c-0.597-1.094-1.742-1.778-2.987-1.788c-1.25-0.003-2.401,0.707-3.017,1.79
	L4.94,20.657c-0.103,0.183,0.029,0.409,0.239,0.409h2.881c0.099,0,0.191-0.053,0.239-0.139l4.656-8.268
	c0.091-0.161,0.231-0.212,0.335-0.218c0.101,0.001,0.242,0.024,0.331,0.186l4.036,7.374l0.065,0.106
	c0.744,1.128,2.143,1.666,3.519,1.258c0.696-0.207,1.285-0.676,1.682-1.284l0.02-0.029L31.754,3.94
	c0.023-0.002,0.092,0.01,0.102,0.018c0,0,0.033,0.01,0.033,0.037v16.797c0,0.152,0.122,0.274,0.275,0.274h2.504
	c0.153,0,0.276-0.122,0.276-0.274V4.13C34.944,2.762,34.109,1.496,32.813,1.055"/>
</svg>
