<?xml version="1.0" encoding="utf-8"?>
<!-- Generator: Adobe Illustrator 16.0.0, SVG Export Plug-In . SVG Version: 6.00 Build 0)  -->
<!DOCTYPE svg PUBLIC "-//W3C//DTD SVG 1.1//EN" "http://www.w3.org/Graphics/SVG/1.1/DTD/svg11.dtd">
<svg version="1.1" id="Layer_1" xmlns="http://www.w3.org/2000/svg" xmlns:xlink="http://www.w3.org/1999/xlink" x="0px" y="0px"
	 width="149.895px" height="116.792px" viewBox="0 0 149.895 116.792" enable-background="new 0 0 149.895 116.792"
	 xml:space="preserve">
<circle fill="none" stroke="#24D071" stroke-width="11" stroke-linecap="round" stroke-linejoin="round" stroke-miterlimit="10" cx="135.221" cy="102.12" r="9.173"/>
<circle fill="none" stroke="#24D071" stroke-width="7.778" stroke-linecap="round" stroke-linejoin="round" stroke-miterlimit="10" cx="117.763" cy="13.062" r="9.173"/>
<circle fill="none" stroke="#24D071" stroke-width="7.778" stroke-linecap="round" stroke-linejoin="round" stroke-miterlimit="10" cx="23.157" cy="36.499" r="6.487"/>
<circle fill="none" stroke="#24D071" stroke-width="4.947" stroke-linecap="round" stroke-linejoin="round" stroke-miterlimit="10" cx="6.599" cy="97.994" r="4.125"/>
<line fill="none" stroke="#78F972" stroke-width="3" stroke-linecap="round" stroke-linejoin="round" stroke-miterlimit="10" x1="15.006" y1="92.618" x2="44.758" y2="73.593"/>
<line fill="none" stroke="#78F972" stroke-width="3" stroke-linecap="round" stroke-linejoin="round" stroke-miterlimit="10" x1="121.718" y1="92.946" x2="93.237" y2="73.597"/>
<line fill="none" stroke="#78F972" stroke-width="3" stroke-linecap="round" stroke-linejoin="round" stroke-miterlimit="10" x1="106.314" y1="23.684" x2="90.854" y2="38.026"/>
<line fill="none" stroke="#78F972" stroke-width="3" stroke-linecap="round" stroke-linejoin="round" stroke-miterlimit="10" x1="34.501" y1="41.645" x2="43.012" y2="45.505"/>
<path fill="none" stroke="#24D071" stroke-width="12" stroke-linecap="round" stroke-linejoin="round" stroke-miterlimit="10" d="
	M48.601,57.625c0-11.668,9.459-21.127,21.127-21.127s21.127,9.459,21.127,21.127s-9.459,21.127-21.127,21.127
	c-2.324,0-4.563-0.375-6.653-1.069"/>
<path fill="none" stroke="#78F972" stroke-width="12" stroke-linecap="round" stroke-linejoin="round" stroke-miterlimit="10" d="
	M55.897,73.597c-4.47-3.874-7.297-9.593-7.297-15.972"/>
<path fill="none" stroke="#24D071" stroke-width="12" stroke-linecap="round" stroke-linejoin="round" stroke-miterlimit="10" d="
	M63.074,77.684c-2.668-0.884-5.101-2.286-7.177-4.086"/>
</svg>
