<?xml version="1.0" encoding="utf-8"?>
<!-- Generator: Adobe Illustrator 16.0.0, SVG Export Plug-In . SVG Version: 6.00 Build 0)  -->
<!DOCTYPE svg PUBLIC "-//W3C//DTD SVG 1.1//EN" "http://www.w3.org/Graphics/SVG/1.1/DTD/svg11.dtd">
<svg version="1.1" id="Layer_1" xmlns="http://www.w3.org/2000/svg" xmlns:xlink="http://www.w3.org/1999/xlink" x="0px" y="0px"
	 width="105.938px" height="113.197px" viewBox="0 0 105.938 113.197" enable-background="new 0 0 105.938 113.197"
	 xml:space="preserve">
<line fill="none" stroke="#78F972" stroke-width="3" stroke-linecap="round" stroke-linejoin="round" stroke-miterlimit="10" x1="17.72" y1="86.656" x2="45.115" y2="102.473"/>
<line fill="none" stroke="#78F972" stroke-width="3" stroke-linecap="round" stroke-linejoin="round" stroke-miterlimit="10" x1="8.961" y1="39.603" x2="8.961" y2="71.039"/>
<line fill="none" stroke="#78F972" stroke-width="3" stroke-linecap="round" stroke-linejoin="round" stroke-miterlimit="10" x1="36.91" y1="47.735" x2="15.447" y2="35.344"/>
<line fill="none" stroke="#78F972" stroke-width="3" stroke-linecap="round" stroke-linejoin="round" stroke-miterlimit="10" x1="52.262" y1="98.467" x2="52.262" y2="74.844"/>
<line fill="none" stroke="#78F972" stroke-width="3" stroke-linecap="round" stroke-linejoin="round" stroke-miterlimit="10" x1="52.262" y1="74.844" x2="52.262" y2="98.468"/>
<line fill="none" stroke="#78F972" stroke-width="3" stroke-linecap="round" stroke-linejoin="round" stroke-miterlimit="10" x1="87.617" y1="36.187" x2="67.613" y2="47.735"/>
<line fill="none" stroke="#78F972" stroke-width="3" stroke-linecap="round" stroke-linejoin="round" stroke-miterlimit="10" x1="95.563" y1="69.099" x2="95.563" y2="39.603"/>
<line fill="none" stroke="#78F972" stroke-width="3" stroke-linecap="round" stroke-linejoin="round" stroke-miterlimit="10" x1="59.604" y1="102.359" x2="85.359" y2="87.489"/>
<line fill="none" stroke="#78F972" stroke-width="3" stroke-linecap="round" stroke-linejoin="round" stroke-miterlimit="10" x1="45.635" y1="10.425" x2="15.447" y2="27.854"/>
<line fill="none" stroke="#78F972" stroke-width="3" stroke-linecap="round" stroke-linejoin="round" stroke-miterlimit="10" x1="88.223" y1="27.361" x2="58.889" y2="10.425"/>
<line fill="none" stroke="#78F972" stroke-width="3" stroke-linecap="round" stroke-linejoin="round" stroke-miterlimit="10" x1="67.613" y1="47.735" x2="87.617" y2="36.187"/>
<line fill="none" stroke="#78F972" stroke-width="3" stroke-linecap="round" stroke-linejoin="round" stroke-miterlimit="10" x1="15.447" y1="35.344" x2="36.91" y2="47.735"/>
<circle fill="none" stroke="#24D071" stroke-width="4.947" stroke-linecap="round" stroke-linejoin="round" stroke-miterlimit="10" cx="95.563" cy="31.599" r="4.587"/>
<circle fill="none" stroke="#24D071" stroke-width="4.947" stroke-linecap="round" stroke-linejoin="round" stroke-miterlimit="10" cx="8.96" cy="81.33" r="6.487"/>
<circle fill="none" stroke="#24D071" stroke-width="4.947" stroke-linecap="round" stroke-linejoin="round" stroke-miterlimit="10" cx="52.262" cy="106.599" r="4.125"/>
<circle fill="none" stroke="#24D071" stroke-width="4.947" stroke-linecap="round" stroke-linejoin="round" stroke-miterlimit="10" cx="52.262" cy="6.599" r="4.125"/>
<circle fill="none" stroke="#24D071" stroke-width="4.947" stroke-linecap="round" stroke-linejoin="round" stroke-miterlimit="10" cx="8.96" cy="31.599" r="4.125"/>
<path fill="none" stroke="#24D071" stroke-width="12" stroke-linecap="round" stroke-linejoin="round" stroke-miterlimit="10" d="
	M59.604,63.941c-4.056,4.055-10.63,4.055-14.687,0c-4.055-4.055-4.055-10.63,0-14.686c4.057-4.056,10.631-4.056,14.687,0
	c0.808,0.809,1.455,1.716,1.94,2.685"/>
<path fill="none" stroke="#78F972" stroke-width="12" stroke-linecap="round" stroke-linejoin="round" stroke-miterlimit="10" d="
	M62.619,55.854c0.207,2.9-0.798,5.87-3.015,8.087"/>
<path fill="none" stroke="#24D071" stroke-width="12" stroke-linecap="round" stroke-linejoin="round" stroke-miterlimit="10" d="
	M61.545,51.94c0.62,1.233,0.979,2.566,1.074,3.915"/>
<circle fill="none" stroke="#24D071" stroke-width="7.778" stroke-linecap="round" stroke-linejoin="round" stroke-miterlimit="10" cx="95.563" cy="81.33" r="6.487"/>
</svg>
