<?xml version="1.0" encoding="utf-8"?>
<!-- Generator: Adobe Illustrator 16.0.0, SVG Export Plug-In . SVG Version: 6.00 Build 0)  -->
<!DOCTYPE svg PUBLIC "-//W3C//DTD SVG 1.1//EN" "http://www.w3.org/Graphics/SVG/1.1/DTD/svg11.dtd">
<svg version="1.1" id="Layer_1" xmlns="http://www.w3.org/2000/svg" xmlns:xlink="http://www.w3.org/1999/xlink" x="0px" y="0px"
	 width="130px" height="95.668px" viewBox="0 0 130 95.668" enable-background="new 0 0 130 95.668" xml:space="preserve">
<polyline fill="none" stroke="#24D071" stroke-width="11" stroke-linecap="round" stroke-linejoin="round" stroke-miterlimit="10" points="
	75.799,39.245 81.269,44.714 97.195,28.788 105.31,36.903 124.5,17.713 "/>
<line fill="none" stroke="#78F972" stroke-width="11" stroke-linecap="round" stroke-linejoin="round" stroke-miterlimit="10" x1="75.799" y1="39.245" x2="71.04" y2="34.485"/>
<path fill="none" stroke="#24D071" stroke-width="12" stroke-linecap="round" stroke-linejoin="round" stroke-miterlimit="10" d="
	M42.066,12.188c8.251,8.25,8.251,21.628,0,29.878c-8.25,8.251-21.627,8.251-29.878,0c-8.251-8.25-8.251-21.628,0-29.878
	c1.644-1.644,3.491-2.96,5.461-3.949"/>
<path fill="none" stroke="#78F972" stroke-width="12" stroke-linecap="round" stroke-linejoin="round" stroke-miterlimit="10" d="
	M25.613,6.054c5.9-0.421,11.941,1.623,16.453,6.134"/>
<path fill="none" stroke="#24D071" stroke-width="12" stroke-linecap="round" stroke-linejoin="round" stroke-miterlimit="10" d="
	M17.649,8.239c2.512-1.261,5.223-1.989,7.964-2.185"/>
<line fill="none" stroke="#78F972" stroke-width="11" stroke-linecap="round" stroke-linejoin="round" stroke-miterlimit="10" x1="28.578" y1="74.566" x2="51.155" y2="74.566"/>
<line fill="none" stroke="#24D071" stroke-width="11" stroke-linecap="round" stroke-linejoin="round" stroke-miterlimit="10" x1="6" y1="74.566" x2="28.578" y2="74.566"/>
<line fill="none" stroke="#24D071" stroke-width="11" stroke-linecap="round" stroke-linejoin="round" stroke-miterlimit="10" x1="6" y1="90.168" x2="68.17" y2="90.168"/>
</svg>
